# xmcd
#
# Track frame offsets: 
#        150
#        13457
#        29795
#        43952
#        59905
#        71955
#        86085
#        95857
#
# Disc length: 1453 seconds
#
# Revision: 0
# Processed by: cddbd v1.5.1PL0 Copyright (c) Steve Scherf et al.
# Submitted via: ExactAudioCopy v0.95a5
#
DISCID=8705ab08
DTITLE=Various Artist - All Time Country Greats
DYEAR=1998
DGENRE=Country
TTITLE0=Lynn Anderson/Rose Garden
TTITLE1=Dickey Lee/Rocky
TTITLE2=Lacy J. Dalton/16th Avenue
TTITLE3=Johnny Lee/Lookin' For Love
TTITLE4=Donna Fargo/Funny Face
TTITLE5=Bob Luman/Lonely Women Make Good Lovers
TTITLE6=Johnny Paycheck/Mr. Lovemaker
TTITLE7=Johnny Carver/Afternoon Delight
EXTD=
EXTT0=
EXTT1=
EXTT2=
EXTT3=
EXTT4=
EXTT5=
EXTT6=
EXTT7=
PLAYORDER=
